<svg version="1.1" id="Layer_1" xmlns="http://www.w3.org/2000/svg" xmlns:xlink="http://www.w3.org/1999/xlink" x="0px" y="0px"
	 width="100%" viewBox="0 0 1024 1024" enable-background="new 0 0 1024 1024" xml:space="preserve">
<path fill="#000000" opacity="1.000000" stroke="none" 
	d="
M1025.000000,537.531372 
	C1024.477539,543.952515 1023.872131,549.899048 1023.445679,555.858398 
	C1019.561157,610.144531 1006.417358,662.184998 985.415710,712.298157 
	C970.672180,747.478394 951.940308,780.442749 929.832520,811.510437 
	C925.801941,817.174438 921.833740,822.640869 913.728577,822.432861 
	C907.376038,822.269836 902.894775,819.422546 900.176819,813.866821 
	C896.961548,807.294739 894.500793,800.467468 892.744141,793.305237 
	C876.091614,725.409302 859.270630,657.554688 842.536194,589.678772 
	C827.794678,529.886292 813.114746,470.078644 798.379944,410.284546 
	C794.048645,392.708008 789.623047,375.154724 784.873230,356.118011 
	C781.852844,368.193329 779.148010,378.889069 776.503418,389.599640 
	C759.986267,456.494080 743.472778,523.389343 726.977234,590.289062 
	C709.647522,660.571777 692.338623,730.859558 675.023010,801.145691 
	C672.881226,809.839478 667.417114,814.218506 658.623779,814.265869 
	C649.234741,814.316345 644.021667,810.343994 641.765991,801.224731 
	C622.584229,723.677307 603.415649,646.126587 584.261597,568.572327 
	C570.653076,513.472107 557.071960,458.365143 543.480713,403.260651 
	C535.071411,369.166290 526.661316,335.072113 518.262634,300.975128 
	C516.727844,294.744202 517.356018,288.904663 522.431885,284.468353 
	C526.910156,280.554413 532.221069,279.716370 537.887329,281.675842 
	C543.067871,283.467346 546.043396,287.230499 547.328979,292.438873 
	C556.695862,330.388489 566.045410,368.342346 575.418457,406.290466 
	C583.919617,440.708496 592.448669,475.119598 600.955933,509.536102 
	C614.411072,563.969177 627.853821,618.405212 641.311157,672.837708 
	C646.851868,695.248840 652.416809,717.653931 658.258972,741.224487 
	C661.531555,728.196594 664.570190,716.233337 667.539856,704.252991 
	C676.546326,667.918030 685.555786,631.583862 694.509583,595.235901 
	C708.717224,537.559631 722.854309,479.866028 737.071716,422.192200 
	C747.584473,379.546143 758.167297,336.917297 768.743042,294.286774 
	C771.048401,284.993927 776.085999,280.768677 784.704407,280.725311 
	C793.353333,280.681793 798.699829,284.962860 800.934387,294.006714 
	C814.819641,350.204193 828.662659,406.412109 842.522644,462.615875 
	C854.596191,511.575378 866.656372,560.538208 878.754150,609.491760 
	C891.563110,661.323181 904.402954,713.146912 917.264038,764.965454 
	C917.762939,766.975525 917.789917,769.241516 919.756226,771.010925 
	C923.043335,767.496155 925.106018,763.301514 927.447632,759.352722 
	C956.963501,709.576843 977.070801,656.258057 987.479980,599.307861 
	C994.187317,562.610840 996.580505,525.533325 994.446411,488.392059 
	C988.010864,376.389130 947.948425,277.766205 873.635620,193.630173 
	C816.848389,129.336334 747.483154,83.496094 666.092102,55.966640 
	C632.823853,44.714123 598.739868,37.218941 563.876953,33.581219 
	C533.020691,30.361570 502.094727,30.236147 471.108124,32.872131 
	C425.822388,36.724514 382.055450,46.779350 339.676361,63.075985 
	C289.454285,82.388611 243.826080,109.467041 202.684479,144.126968 
	C195.037033,150.569611 187.585236,157.224457 180.353012,164.138016 
	C173.183823,170.991333 163.754990,171.102921 157.681366,164.686752 
	C151.600128,158.262589 152.129074,148.832031 159.282883,142.010468 
	C195.828613,107.162148 236.558670,78.227600 281.634796,55.392639 
	C315.511139,38.231316 350.849518,25.018621 387.663269,15.819006 
	C417.920135,8.257931 448.609436,3.285975 479.797821,1.675293 
	C480.952850,1.615644 482.101685,1.436840 483.626709,1.156781 
	C503.020905,1.000000 522.041809,1.000000 541.907410,1.149167 
	C566.199707,2.709843 589.502747,5.447743 612.519958,10.089904 
	C658.633606,19.390163 702.739197,34.550720 744.693970,55.961922 
	C808.205139,88.374191 862.608521,132.115295 908.083069,186.958878 
	C943.248596,229.369598 970.813232,276.324005 990.747681,327.676300 
	C1008.556641,373.553131 1019.689392,421.001312 1023.551636,470.135803 
	C1024.045532,476.419586 1023.500427,482.796021 1025.000000,489.000000 
	C1025.000000,505.020905 1025.000000,521.041809 1025.000000,537.531372 
z"/>
<path fill="#000000" opacity="1.000000" stroke="none" 
	d="
M0.999999,486.468658 
	C1.519784,481.050995 2.298933,476.113281 2.515404,471.151031 
	C3.570938,446.954681 7.678212,423.193481 12.993471,399.652496 
	C22.091000,359.360046 35.798733,320.669525 54.483959,283.785431 
	C58.907871,275.052734 64.659836,272.317871 74.057190,274.655884 
	C75.753372,275.077881 77.328529,275.191864 78.922668,274.514435 
	C80.818008,273.708954 82.804749,273.677765 84.813202,273.677887 
	C212.631592,273.687500 340.449982,273.681671 468.268372,273.711090 
	C478.411133,273.713440 484.808136,280.310455 484.320892,289.968323 
	C483.992401,296.479706 479.799683,301.623779 473.476562,303.355194 
	C470.712891,304.111938 467.911041,304.253143 465.064423,304.252686 
	C340.079041,304.232544 215.093140,304.377289 90.109329,303.932098 
	C80.707596,303.898621 76.808769,306.757355 73.164795,314.974396 
	C53.649830,358.979889 40.701363,404.756073 34.511826,452.437744 
	C30.944695,479.917419 30.694580,507.562653 31.275036,535.232422 
	C31.379299,540.202576 33.873436,540.788513 37.956047,540.784058 
	C106.281311,540.709106 174.606674,540.734192 242.932022,540.733643 
	C276.261444,540.733398 309.590912,540.697510 342.920288,540.740295 
	C352.616913,540.752686 359.126495,546.530457 359.432831,555.127075 
	C359.747620,563.959106 354.035095,570.404175 345.137756,571.166504 
	C343.316864,571.322510 341.473877,571.234924 339.641052,571.235046 
	C240.319336,571.240234 140.997620,571.242859 41.675900,571.245728 
	C39.551807,571.245789 37.427711,571.245728 34.932568,571.245728 
	C34.956394,581.222229 36.966553,590.305054 38.623188,599.375854 
	C47.452061,647.717590 63.243107,693.693115 86.250786,737.137451 
	C119.749771,800.392090 164.934280,853.769592 221.917847,897.114441 
	C271.295563,934.673950 325.912109,961.742920 385.701324,978.226196 
	C415.777252,986.517883 446.418304,991.686951 477.589355,993.845825 
	C532.559448,997.653076 586.739746,993.025513 639.909546,978.540161 
	C693.597290,963.913574 743.264160,940.492310 788.815491,908.461670 
	C793.992554,904.821350 799.019470,900.968262 804.161987,897.277832 
	C811.983215,891.665039 821.297852,892.566345 826.439331,899.372742 
	C831.921143,906.629578 830.381531,915.792969 822.520508,921.736694 
	C770.380554,961.159180 712.968384,989.908081 649.892395,1007.340454 
	C622.704834,1014.854370 595.077515,1019.838867 567.101501,1023.039307 
	C560.003906,1023.851257 552.841003,1024.092773 545.354065,1024.798218 
	C523.645752,1025.000000 502.291534,1025.000000 480.102844,1024.823120 
	C478.449615,1024.511719 477.634521,1024.289917 476.811646,1024.255737 
	C454.975616,1023.347595 433.417114,1020.137390 412.050751,1015.809998 
	C355.607941,1004.378296 302.536102,984.111206 252.941757,954.712830 
	C198.908646,922.683289 152.293701,882.164185 113.000549,833.214783 
	C76.276825,787.466064 48.255760,736.833435 28.908705,681.470764 
	C16.240921,645.221130 7.732948,607.988098 3.568082,569.767029 
	C2.560364,560.519165 2.805326,551.164917 1.000000,542.000000 
	C1.000000,523.645752 1.000000,505.291534 0.999999,486.468658 
z"/>
</svg>